<?xml version="1.0" standalone="no"?><!DOCTYPE svg PUBLIC "-//W3C//DTD SVG 1.1//EN" "http://www.w3.org/Graphics/SVG/1.1/DTD/svg11.dtd"><svg t="1611760623607" class="icon" viewBox="0 0 1024 1024" version="1.1" xmlns="http://www.w3.org/2000/svg" p-id="780" xmlns:xlink="http://www.w3.org/1999/xlink" width="300" height="300"><defs><style type="text/css"></style></defs><path d="M493.525333 145.365333a42.666667 42.666667 0 0 1 55.36 17.024l1.578667 2.965334L644.266667 360.533333l210.154666 30.464a42.666667 42.666667 0 0 1 26.56 69.674667l-2.496 2.709333L725.333333 616.533333l36.629334 215.168a42.666667 42.666667 0 0 1-59.093334 46.272l-3.029333-1.450666L512 776.533333l-187.84 99.989334a42.666667 42.666667 0 0 1-62.528-41.664l0.426667-3.157334L298.666667 616.533333l-153.152-153.152a42.666667 42.666667 0 0 1 20.906666-71.808l3.157334-0.576L379.733333 360.533333l93.802667-195.2a42.666667 42.666667 0 0 1 19.989333-19.968z m107.818667 273.621334L512 233.066667l-89.344 185.92-201.792 29.226666 146.453333 146.453334-34.901333 204.949333L512 704.042667l179.562667 95.573333-34.88-204.949333 146.432-146.453334-201.770667-29.226666z" fill="#000000" p-id="781"></path></svg>